<svg width="2490" height="2328" xmlns="http://www.w3.org/2000/svg" xmlns:xlink="http://www.w3.org/1999/xlink" xml:space="preserve" overflow="hidden"><defs><linearGradient x1="986.648" y1="2479.21" x2="3308.39" y2="-4.1688" gradientUnits="userSpaceOnUse" spreadMethod="reflect" id="fill0"><stop offset="0" stop-color="#F86037"/><stop offset="0.5" stop-color="#F4881B"/><stop offset="1" stop-color="#F0B100"/></linearGradient></defs><g transform="translate(-903 -74)"><path d="M3045.48 172.365C3260.89 303.541 3392.02 584.633 3392.02 853.231 3392.02 1118.71 3264.02 1371.69 3123.53 1612.18 2979.91 1849.55 2823.81 2080.67 2586.54 2230.58 2349.27 2380.5 2027.7 2455.46 1777.94 2355.51 1528.18 2255.57 1347.1 1980.72 1178.51 1699.63 1009.92 1415.41 850.701 1118.71 919.385 890.71 988.07 659.59 1284.66 494.058 1540.67 369.129 1796.67 247.322 2012.09 162.995 2271.22 113.023 2527.22 63.0511 2830.06 41.1885 3045.48 172.365Z" fill="url(#fill0)" fill-rule="evenodd"/><path d="M1963.3 734.025C1938.45 738.915 1914.46 740.644 1909.98 737.886 1905.52 735.117 1898.9 737.638 1895.29 743.485 1891.67 749.332 1883.96 751.175 1878.16 747.582 1872.35 744 1857.62 745.76 1845.42 751.515 1833.23 757.269 1805.05 770.002 1782.8 779.823 1747.14 795.573 1631.22 897.894 1649.05 897.894 1652.84 897.894 1650.19 904.843 1643.14 913.335 1631.86 926.923 1646.37 928.776 1764.23 928.776L1898.14 928.776 1904.82 893.19C1924.49 788.295 2095.89 796.52 2122.78 903.659 2128.69 927.221 2131.73 927.777 2270.93 930.814 2399.25 933.624 2412.17 932.307 2404.1 917.257 2399.18 908.095 2397.83 897.935 2401.09 894.672 2404.35 891.409 2393.77 876.812 2377.57 862.236 2361.38 847.66 2338.19 826.537 2326.05 815.306 2313.9 804.065 2289.49 791.98 2271.8 788.439 2254.11 784.898 2237.14 777.97 2234.09 773.039 2231.05 768.108 2217.25 764.073 2203.43 764.073 2189.61 764.073 2178.31 760.254 2178.31 755.581 2178.31 750.907 2163.25 746.584 2144.86 745.966 2126.47 745.349 2091.89 742.713 2068.03 740.109 2041.61 737.227 2025.53 739.471 2026.87 745.863 2028.08 751.628 2022.8 758.638 2015.13 761.428 2005 765.123 2003.07 760.563 2008.1 744.7 2011.91 732.708 2013.56 723.402 2011.76 724.03 2009.97 724.648 1988.16 729.146 1963.3 734.025M1892.38 775.953C1894.92 783.58 1905.25 791.403 1915.33 793.37 1927.07 795.634 1932.02 791.929 1929.06 783.076 1926.53 775.448 1916.2 767.625 1906.11 765.659 1894.38 763.394 1889.43 767.1 1892.38 775.953M2075.39 788.089C2075.39 807.225 2085.25 815.059 2101.48 808.831 2118.68 802.233 2109.18 774.367 2089.73 774.367 2081.85 774.367 2075.39 780.543 2075.39 788.089M1829.97 809.758C1831.94 819.197 1838.17 826.681 1843.83 826.382 1859.1 825.569 1856.3 802.541 1840.27 797.199 1831.61 794.317 1827.76 799.021 1829.97 809.758M2163.87 813.937C2160.31 819.701 2162.41 827.515 2168.53 831.303 2184.36 841.082 2194.57 827.69 2181.36 814.472 2173.97 807.081 2168.21 806.906 2163.87 813.937M2252.6 817.128C2255.13 824.756 2265.46 832.579 2275.55 834.546 2287.28 836.81 2292.23 833.104 2289.28 824.251 2286.74 816.623 2276.41 808.8 2266.33 806.834 2254.59 804.569 2249.64 808.275 2252.6 817.128M1756.35 830.984C1756.35 840.423 1761.33 846.476 1767.41 844.448 1773.49 842.42 1778.47 836.367 1778.47 830.984 1778.47 825.6 1773.49 819.547 1767.41 817.519 1761.33 815.492 1756.35 821.544 1756.35 830.984M1824.53 875.227C1816.39 888.393 1835.26 911.513 1847.82 903.751 1864.35 893.54 1861.9 867.012 1844.43 867.012 1836.27 867.012 1827.32 870.708 1824.53 875.227M1720.33 887.6C1709.24 905.532 1725.67 920.839 1741.71 907.519 1749.64 900.941 1753.58 891.45 1750.48 886.437 1742.97 874.28 1728.2 874.856 1720.33 887.6M2213.78 888.496C2203.18 905.666 2227.02 925.348 2241.22 911.142 2253.1 899.263 2245.67 877.306 2229.77 877.306 2224.78 877.306 2217.58 882.34 2213.78 888.496M2308.51 892.418C2300.92 912.203 2322.2 925.163 2333.16 907.426 2342.22 892.768 2336.95 877.306 2322.89 877.306 2318.17 877.306 2311.69 884.111 2308.51 892.418M2147.43 903.895C2147.43 912.861 2152.93 918.369 2159.66 916.125 2178.74 909.763 2181.9 887.6 2163.73 887.6 2154.77 887.6 2147.43 894.94 2147.43 903.895" fill="#FAE9C4" fill-rule="evenodd"/><path d="M1855.22 698.89C1845.78 723.5 1853.15 725.392 1867.7 702.097 1874.62 691.046 1876.09 682 1870.98 682 1865.89 682 1858.79 689.597 1855.22 698.89M2356.66 761.115C2344.33 763.51 2329.29 771.446 2323.23 778.735 2314.31 789.478 2319.06 789.858 2348.21 780.75 2368.01 774.551 2384.2 765.998 2384.2 761.722 2384.2 757.455 2383.04 754.587 2381.63 755.358 2380.22 756.129 2368.97 758.72 2356.66 761.115M2415.06 775.63C2429.21 781.171 2448.78 795.913 2458.56 808.383 2468.33 820.852 2476.44 825.612 2476.56 818.961 2476.87 802.574 2426.61 764.086 2405.96 764.888 2396.07 765.279 2399.75 769.627 2415.06 775.63M2361.27 821.428C2357.6 825.088 2365.33 838.009 2378.45 850.15 2391.56 862.301 2404.42 881.474 2407.03 892.771 2411.02 910.052 2413.09 908.582 2420.07 883.437 2432.3 839.51 2388.93 793.785 2361.27 821.428M2478.19 862.178C2477.42 879.304 2469.58 903.586 2460.77 916.148 2451.97 928.72 2449.1 939 2454.38 939 2469.16 939 2489.33 882.234 2484.18 855.167 2480.38 835.203 2479.35 836.406 2478.19 862.178" fill="#F97010" fill-rule="evenodd"/><path d="M2385.45 760.085C2385.01 766.437 2370.76 774.401 2353.8 777.787 2321.93 784.15 2311.99 808.851 2337.39 818.58 2345.32 821.618 2361.54 821.566 2373.42 818.467 2408.03 809.426 2428.66 834.035 2421.92 876.326 2413.42 929.721 2430.44 950.687 2456.8 919.295 2495.27 873.514 2464.39 774.195 2411.68 774.195 2403.41 774.195 2394.3 768.428 2391.44 761.367 2388.2 753.352 2385.95 752.88 2385.45 760.085" fill="#FF8201" fill-rule="evenodd"/><path d="M2242.37 704.053C2223.47 722.884 2226.72 763.608 2247.64 770.053 2257.54 773.106 2274.33 780.288 2284.95 786.004 2313.47 801.362 2344.76 770.299 2320.04 751.16 2310.88 744.061 2301.78 729.031 2299.83 717.761 2295.71 693.921 2260.89 685.612 2242.37 704.053M1629.62 709.227C1616.25 722.546 1623.11 754.982 1650.47 807.745 1669.36 844.187 1679.42 855.487 1682.09 843.265 1684.23 833.409 1692.59 825.336 1700.65 825.336 1708.73 825.336 1715.33 819.547 1715.33 812.468 1715.33 805.389 1729.11 793.535 1745.93 786.107 1786.34 768.301 1763.5 722.884 1714.15 722.884 1697.83 722.884 1684.47 718.273 1684.47 712.638 1684.47 701.246 1640.39 698.5 1629.62 709.227" fill="#417D01" fill-rule="evenodd"/><path d="M2178.64 685.691C2171.88 693.861 2159.67 697.987 2151.52 694.851 2134.3 688.229 2106.09 708.631 2106.09 727.713 2106.09 747.342 2137.36 755.532 2155.38 740.628 2167.98 730.21 2172.07 730.179 2175.52 740.452 2184.31 766.621 2226.86 755.099 2232.63 724.98 2241.46 678.894 2205.78 652.922 2178.64 685.691M1567.5 739.596C1563.72 743.371 1560.63 756.801 1560.63 769.437 1560.63 782.062 1553.69 795.069 1545.19 798.339 1527.52 805.136 1524.26 851.872 1540.75 862.084 1546.8 865.828 1549.13 875.72 1545.94 884.075 1534.52 913.864 1559.09 939.011 1599.59 939 1632.95 939 1638.01 935.761 1639.28 913.595 1640.08 899.619 1647.91 881.011 1656.66 872.233 1671.04 857.824 1669.9 850.283 1644.91 794.831 1618.42 736.017 1590.76 716.285 1567.5 739.596" fill="#77AE2C" fill-rule="evenodd"/><path d="M1928.64 646.51C1904.76 670.529 1921.3 733.675 1949.53 726.245 1965.09 722.147 1990.55 719.187 2006.12 719.664 2040.47 720.719 2041.59 711.488 2011.26 677.349 1987.37 650.453 1941.68 633.398 1928.64 646.51M1830.98 657.438C1790.03 674.016 1776.33 754 1814.44 754 1838.32 754 1839.81 752.034 1827.39 736.987 1814.93 721.878 1815.95 720.719 1836.42 726.638 1849.11 730.302 1868.75 735.942 1880.07 739.171 1896.92 743.983 1900.65 740.102 1900.65 717.801 1900.65 663.709 1873.54 640.218 1830.98 657.438M1859.49 691.909C1859.49 697.601 1864.12 702.258 1869.78 702.258 1875.44 702.258 1880.07 697.601 1880.07 691.909 1880.07 686.217 1875.44 681.56 1869.78 681.56 1864.12 681.56 1859.49 686.217 1859.49 691.909M1931.52 691.909C1931.52 697.601 1936.15 702.258 1941.81 702.258 1947.47 702.258 1952.1 697.601 1952.1 691.909 1952.1 686.217 1947.47 681.56 1941.81 681.56 1936.15 681.56 1931.52 686.217 1931.52 691.909M1838.91 706.821C1838.91 715.69 1843.54 722.954 1849.2 722.954 1854.86 722.954 1859.49 718.577 1859.49 713.217 1859.49 707.856 1854.86 700.602 1849.2 697.083 1843.54 693.565 1838.91 697.952 1838.91 706.821M1962.39 702.868C1962.39 708.891 1967.02 710.95 1972.68 707.432 1978.34 703.913 1982.97 698.987 1982.97 696.472 1982.97 693.958 1978.34 691.909 1972.68 691.909 1967.02 691.909 1962.39 696.845 1962.39 702.868" fill="#EF140C" fill-rule="evenodd"/><path d="M1850.14 607.723C1813.65 625.553 1757.75 671.367 1772.47 671.367 1777.01 671.367 1773.62 679.475 1764.97 689.372 1756.3 699.269 1750.59 715.906 1752.3 726.328 1757.58 758.746 1764.49 756.082 1771.46 718.931 1785.07 646.428 1880.8 594.564 1955.51 619.205 1998.26 633.3 2040.17 675.112 2029.25 692.767 2024.43 700.576 2025.7 702.778 2032.57 698.529 2038.71 694.743 2046.69 700.967 2050.3 712.366 2057.18 734.003 2076.09 741.164 2076.09 722.13 2076.09 687.242 2004.21 609.637 1971.89 609.637 1961.92 609.637 1950.9 605.007 1947.4 599.349 1937.9 583.988 1890.31 588.093 1850.14 607.723M1859.89 644.546C1859.89 646.768 1867.08 651.346 1875.87 654.721 1885.03 658.229 1889.16 656.501 1885.56 650.677 1879.51 640.893 1859.89 636.212 1859.89 644.546M1913.37 697.088C1913.58 714.064 1915.89 719.764 1918.5 709.753 1921.12 699.743 1920.94 685.853 1918.12 678.888 1915.3 671.923 1913.17 680.112 1913.37 697.088M1829 722.809C1819.73 728.797 1818.45 732.84 1825.82 732.943 1832.57 733.026 1840.95 728.468 1844.45 722.809 1852.34 710.031 1848.78 710.031 1829 722.809M1901.07 778.788C1901.07 787.605 1905.7 794.828 1911.37 794.828 1917.03 794.828 1921.66 790.476 1921.66 785.146 1921.66 779.817 1917.03 772.605 1911.37 769.107 1905.7 765.609 1901.07 769.971 1901.07 778.788M1756.94 825.693C1756.94 831.352 1761.85 835.982 1767.84 835.982 1773.83 835.982 1775.88 831.352 1772.38 825.693 1768.88 820.034 1763.98 815.405 1761.48 815.405 1758.97 815.405 1756.94 820.034 1756.94 825.693M2261.41 825.693C2261.41 831.352 2266.04 835.982 2271.71 835.982 2277.37 835.982 2282 831.352 2282 825.693 2282 820.034 2277.37 815.405 2271.71 815.405 2266.04 815.405 2261.41 820.034 2261.41 825.693M2153.31 897.712C2149.81 903.37 2151.86 908 2157.85 908 2163.84 908 2168.75 903.37 2168.75 897.712 2168.75 892.053 2166.71 887.423 2164.21 887.423 2161.71 887.423 2156.81 892.053 2153.31 897.712" fill="#D83C41" fill-rule="evenodd"/><path d="M1854.3 623.497C1784.25 655.832 1732.92 764.828 1788.62 762.977 1802.11 762.535 1807.35 759.83 1800.26 756.981 1766.29 743.282 1799.38 667.608 1847.31 649.404 1879.79 637.062 1900.62 658.413 1900.62 704.046 1900.62 719.936 1904.61 732.936 1909.48 732.936 1914.36 732.936 1916.24 721.879 1913.65 708.376 1907.46 675.948 1927.33 640.374 1951.65 640.374 1981.71 640.374 2036.9 691.53 2031.03 713.94 2027.95 725.757 2031.53 732.936 2040.54 732.936 2059.83 732.936 2058.76 723.782 2034.88 684.639 1996.5 621.749 1916.67 594.72 1854.3 623.497" fill="#FF725C" fill-rule="evenodd"/><path d="M2242.37 704.053C2223.47 722.884 2226.72 763.608 2247.64 770.053 2257.54 773.106 2274.33 780.288 2284.95 786.004 2313.47 801.362 2344.76 770.299 2320.04 751.16 2310.88 744.061 2301.78 729.031 2299.83 717.761 2295.71 693.921 2260.89 685.612 2242.37 704.053M1629.62 709.227C1616.25 722.546 1623.11 754.982 1650.47 807.745 1669.36 844.187 1679.42 855.487 1682.09 843.265 1684.23 833.409 1692.59 825.336 1700.65 825.336 1708.73 825.336 1715.33 819.547 1715.33 812.468 1715.33 805.389 1729.11 793.535 1745.93 786.107 1786.34 768.301 1763.5 722.884 1714.15 722.884 1697.83 722.884 1684.47 718.273 1684.47 712.638 1684.47 701.246 1640.39 698.5 1629.62 709.227" fill="#417D01" fill-rule="evenodd"/><path d="M2178.64 685.691C2171.88 693.861 2159.67 697.987 2151.52 694.851 2134.3 688.229 2106.09 708.631 2106.09 727.713 2106.09 747.342 2137.36 755.532 2155.38 740.628 2167.98 730.21 2172.07 730.179 2175.52 740.452 2184.31 766.621 2226.86 755.099 2232.63 724.98 2241.46 678.894 2205.78 652.922 2178.64 685.691M1567.5 739.596C1563.72 743.371 1560.63 756.801 1560.63 769.437 1560.63 782.062 1553.69 795.069 1545.19 798.339 1527.52 805.136 1524.26 851.872 1540.75 862.084 1546.8 865.828 1549.13 875.72 1545.94 884.075 1534.52 913.864 1559.09 939.011 1599.59 939 1632.95 939 1638.01 935.761 1639.28 913.595 1640.08 899.619 1647.91 881.011 1656.66 872.233 1671.04 857.824 1669.9 850.283 1644.91 794.831 1618.42 736.017 1590.76 716.285 1567.5 739.596" fill="#77AE2C" fill-rule="evenodd"/><path d="M1823.8 876.518C1820.59 881.744 1827.33 883.56 1838.77 880.537 1863.03 874.125 1866.09 867 1844.59 867 1836.35 867 1827 871.281 1823.8 876.518" fill="#FBE5AE" fill-rule="evenodd"/><path d="M1506.55 1006.02 1573.1 1074.04 1777.07 1068.13 1981.03 1062.22 2005.91 1087.12C2049.62 1130.85 2025.78 1158.44 1933.07 1171.42L1871.36 1180.06 1926.54 1197.95C2022.34 1229.01 2145.63 1200.87 2339.77 1103.65 2422.13 1062.41 2469.35 1052.04 2488.96 1070.87 2494.97 1076.63 2528.45 1052.92 2575.86 1009.33L2653 938.412 2046.5 938.206 1440 938 1506.55 1006.02" fill="#41ADB7" fill-rule="evenodd"/><path d="M2528.57 1423.82C2548.39 1424.74 2575.38 1431.41 2612.71 1443.99 2673.83 1464.58 2678.78 1464.71 2784.75 1448.72 3001.97 1415.93 2976.09 1413.62 3100.98 1476.95 3116.36 1484.75 3132.28 1492.56 3147.87 1500.01L3181 1515.36 3174.91 1526.7C3157.97 1557.14 3140.61 1587.38 3123.05 1617.43L3043.19 1743.63 3014.85 1743.86C2968.03 1746.61 2915.54 1756.49 2847.73 1773.05 2534.55 1849.53 2531.39 1849.37 2259.46 1742.33 2065.05 1665.81 1996.19 1627.64 1987.09 1591.37 1974.11 1539.66 2023.08 1533.42 2144.71 1571.25 2378.67 1644.04 2490.86 1653.03 2587.83 1606.75L2655.2 1574.59 2582.53 1540.94C2502.04 1503.64 2465.69 1464.37 2487.44 1438.17 2496.1 1427.73 2508.75 1422.9 2528.57 1423.82ZM1913.11 1064.38C1947.67 1063.3 1968.69 1069.59 1986.92 1083.94 2039.54 1125.32 2009.88 1165.51 1926.74 1165.51 1838.46 1165.51 1875.38 1203.9 1980.77 1221.71 2031.07 1230.2 2196.38 1178.69 2329.71 1112.96 2558.21 1000.31 2535.77 1114.21 2302.17 1252.76 2031.75 1413.16 1999.64 1420.33 1686.76 1390.28 1536.52 1375.86 1448.73 1390.78 1354.89 1446.68 1295.86 1481.85 1224.28 1515.15 1123.42 1554.12L1097.34 1564 1057.05 1490.7C1038.28 1455.05 1020.5 1419.51 1004.15 1384.26L985 1339.03 985 1324.91 1128.43 1285.5C1275.4 1245.1 1308.68 1228.95 1449.75 1129.49L1522.74 1078.04 1652.62 1080.63C1724.06 1082.05 1805.66 1079.12 1833.96 1074.12 1866.76 1068.32 1892.38 1065.02 1913.11 1064.38ZM2029.89 889.571C2048.55 890.624 2067.31 896.775 2077.32 907.529 2105.04 937.27 2102.55 939.112 2034.62 939.112 1973.34 939.112 1957.47 927.761 1983.02 902.209 1992.66 892.566 2011.23 888.519 2029.89 889.571ZM1844.25 877.366C1852.74 877.366 1859.68 881.997 1859.68 887.657 1859.68 893.317 1852.74 897.948 1844.25 897.948 1835.76 897.948 1828.81 893.317 1828.81 887.657 1828.81 881.997 1835.76 877.366 1844.25 877.366ZM2089.52 778.003C2092.43 778.092 2095.71 779.983 2099.41 783.677 2112.62 796.891 2102.41 810.28 2086.59 800.503 2080.46 796.716 2078.36 788.905 2081.92 783.142 2084.09 779.628 2086.62 777.914 2089.52 778.003Z" fill="#FFB584" fill-rule="evenodd"/><path d="M2179.08 1407.18C2166.19 1422.69 2178.58 1461.2 2211.15 1506.9 2240.79 1548.47 2231.13 1551.31 2186.12 1514.25 2110.7 1452.15 2046.27 1458.02 2080.36 1523.87 2109.8 1580.72 2452.77 1663 2532.66 1632.37 2547.49 1626.69 2491.75 1557.32 2366.33 1425.37 2323.72 1380.55 2295.97 1422.46 2327.69 1483.72 2350.51 1527.81 2342.11 1523.43 2281.87 1459.81 2226.11 1400.91 2196.77 1385.89 2179.08 1407.18" fill="#FFA063" fill-rule="evenodd"/><path d="M2003.76 753.296C2003.76 758.959 2008.39 763.593 2014.05 763.593 2019.71 763.593 2024.34 758.959 2024.34 753.296 2024.34 747.633 2019.71 743 2014.05 743 2008.39 743 2003.76 747.633 2003.76 753.296M1839.14 815.075C1839.14 820.738 1843.77 825.371 1849.43 825.371 1855.09 825.371 1859.72 820.738 1859.72 815.075 1859.72 809.412 1855.09 804.778 1849.43 804.778 1843.77 804.778 1839.14 809.412 1839.14 815.075M2168.38 825.371C2168.38 831.034 2173.01 835.668 2178.67 835.668 2184.33 835.668 2188.96 831.034 2188.96 825.371 2188.96 819.708 2184.33 815.075 2178.67 815.075 2173.01 815.075 2168.38 819.708 2168.38 825.371M1731.97 885.77C1727.53 892.947 1726.69 901.596 1730.08 904.994 1739.29 914.209 1749.33 900.659 1744.35 885.729 1740.88 875.268 1738.45 875.268 1731.97 885.77M2312.42 897.446C2312.42 903.109 2317.05 907.743 2322.71 907.743 2328.37 907.743 2333 903.109 2333 897.446 2333 891.783 2328.37 887.15 2322.71 887.15 2317.05 887.15 2312.42 891.783 2312.42 897.446" fill="#46A894" fill-rule="evenodd"/></g></svg>