<svg width="631" height="612" xmlns="http://www.w3.org/2000/svg" xmlns:xlink="http://www.w3.org/1999/xlink" xml:space="preserve" overflow="hidden"><defs><clipPath id="clip0"><path d="M209.573 72.346 799.775 113.617 759.927 683.467 169.725 642.196Z" fill-rule="evenodd" clip-rule="evenodd"/></clipPath><clipPath id="clip1"><path d="M209.573 72.346 799.775 113.617 759.927 683.467 169.725 642.196Z" fill-rule="evenodd" clip-rule="evenodd"/></clipPath><clipPath id="clip2"><path d="M209.573 72.346 799.775 113.617 759.927 683.467 169.725 642.196Z" fill-rule="evenodd" clip-rule="evenodd"/></clipPath><clipPath id="clip3"><path d="M219.749 73.0575 789.599 112.905 749.751 682.755 179.901 642.907Z"/></clipPath></defs><g transform="translate(-169 -72)"><g clip-path="url(#clip0)"><g clip-path="url(#clip1)"><g clip-path="url(#clip2)"><g clip-path="url(#clip3)"><path d="M190.859 56.8703C208.538 54.9891 226.832 67.3083 233.071 83.0889L230.463 56.7416C228.207 35.8272 240.992 21.5988 261.928 19.3354 282.84 17.1128 309.976 69.0623 309.976 69.0623 307.705 47.9463 320.348 29.7429 341.472 27.4594 362.573 25.2166 381.559 40.4851 383.813 61.6282L415.06 339.466 300.64 504.304 180.449 366.457 156.525 99.5105C154.213 78.247 169.589 59.1618 190.859 56.8703Z" fill="#EF9645" transform="matrix(0.997564 0.0697565 -0.0697565 0.997564 209.573 72.346)"/><path d="M100.132 151.812C100.132 151.812 97.1184 120.938 127.998 117.945 158.851 114.937 161.859 145.79 161.859 145.79L175.809 289.062C180.527 286.318 185.446 283.754 190.647 281.418L171.273 82.5909C171.273 82.5909 168.265 51.7379 199.132 48.7377 229.986 45.7297 232.993 76.5829 232.993 76.5829L251.205 263.616C256.224 262.702 261.333 261.818 266.519 261.049L245.415 44.2018C245.415 44.2018 242.408 13.3488 273.274 10.3484 304.127 7.34061 307.136 38.1936 307.136 38.1936L328.254 255.014C333.558 254.77 338.64 254.829 343.806 254.774L324.065 52.1162C324.065 52.1162 321.058 21.2632 351.911 18.2554 382.764 15.2476 385.772 46.1006 385.772 46.1006L406.638 260.392 409.804 292.979C317.225 302.009 263.028 385.159 270.536 462.295 272.029 477.725 287.459 476.232 287.459 476.232 278.452 383.646 334.15 315.911 426.736 306.901L461.598 196.852C461.598 196.852 468.604 166.653 498.796 173.638 528.996 180.644 522.002 210.851 522.002 210.851L507.413 291.396C501.627 323.331 496.478 355.492 495.252 387.922 491.792 479.492 421.119 556.691 327.374 565.839 225.134 575.791 134.143 500.946 124.171 398.712L100.132 151.812Z" fill="#FFDC5D" transform="matrix(0.997564 0.0697565 -0.0697565 0.997564 209.573 72.346)"/></g></g></g></g></g></svg>